<svg width="16" height="17" viewBox="0 0 16 17" fill="none" xmlns="http://www.w3.org/2000/svg">
  <path
    d="M14.5717 2.64503H11.5717V1.50217C11.5717 1.4236 11.5074 1.35931 11.4289 1.35931H10.4289C10.3503 1.35931 10.286 1.4236 10.286 1.50217V2.64503H5.71457V1.50217C5.71457 1.4236 5.65028 1.35931 5.57171 1.35931H4.57171C4.49314 1.35931 4.42885 1.4236 4.42885 1.50217V2.64503H1.42885C1.11278 2.64503 0.857422 2.90039 0.857422 3.21646V15.0736C0.857422 15.3897 1.11278 15.645 1.42885 15.645H14.5717C14.8878 15.645 15.1431 15.3897 15.1431 15.0736V3.21646C15.1431 2.90039 14.8878 2.64503 14.5717 2.64503ZM13.8574 14.3593H2.14314V7.5736H13.8574V14.3593ZM2.14314 6.35931V3.93074H4.42885V4.78789C4.42885 4.86646 4.49314 4.93074 4.57171 4.93074H5.57171C5.65028 4.93074 5.71457 4.86646 5.71457 4.78789V3.93074H10.286V4.78789C10.286 4.86646 10.3503 4.93074 10.4289 4.93074H11.4289C11.5074 4.93074 11.5717 4.86646 11.5717 4.78789V3.93074H13.8574V6.35931H2.14314Z"
    fill-opacity="0.85" />
</svg>
  