<svg width="16" height="17" viewBox="0 0 16 17" fill="none" xmlns="http://www.w3.org/2000/svg">
  <g clip-path="url(#clip0_363_1022)">
    <path
      d="M14.3574 12.4294H13.102C13.0163 12.4294 12.936 12.4669 12.8824 12.533C12.7574 12.6848 12.6235 12.8312 12.4824 12.9705C11.9054 13.5481 11.222 14.0083 10.4699 14.3259C9.69072 14.655 8.85324 14.8238 8.0074 14.8223C7.15204 14.8223 6.32347 14.6544 5.5449 14.3259C4.79281 14.0083 4.10938 13.5481 3.5324 12.9705C2.95439 12.3949 2.4935 11.7127 2.17526 10.9616C1.8449 10.183 1.67883 9.35622 1.67883 8.50086C1.67883 7.64551 1.84669 6.81872 2.17526 6.04015C2.49312 5.28836 2.95026 4.61158 3.5324 4.03122C4.11454 3.45086 4.79133 2.99372 5.5449 2.67586C6.32347 2.34729 7.15204 2.17944 8.0074 2.17944C8.86276 2.17944 9.69133 2.34551 10.4699 2.67586C11.2235 2.99372 11.9003 3.45086 12.4824 4.03122C12.6235 4.17229 12.7556 4.31872 12.8824 4.46872C12.936 4.53479 13.0181 4.57229 13.102 4.57229H14.3574C14.4699 4.57229 14.5395 4.44729 14.477 4.35265C13.1074 2.22408 10.711 0.81515 7.98776 0.822293C3.70919 0.833007 0.278829 4.30622 0.321686 8.57944C0.364543 12.7848 3.78954 16.1794 8.0074 16.1794C10.7235 16.1794 13.1092 14.7723 14.477 12.6491C14.5378 12.5544 14.4699 12.4294 14.3574 12.4294ZM15.9449 8.38836L13.411 6.38836C13.3163 6.31336 13.1788 6.38122 13.1788 6.50086V7.85801H7.57169C7.49312 7.85801 7.42883 7.92229 7.42883 8.00086V9.00086C7.42883 9.07944 7.49312 9.14372 7.57169 9.14372H13.1788V10.5009C13.1788 10.6205 13.3181 10.6884 13.411 10.6134L15.9449 8.61336C15.962 8.6 15.9758 8.58293 15.9853 8.56344C15.9948 8.54394 15.9997 8.52255 15.9997 8.50086C15.9997 8.47918 15.9948 8.45778 15.9853 8.43829C15.9758 8.4188 15.962 8.40173 15.9449 8.38836Z"
      fill="#161616" />
  </g>
  <defs>
    <clipPath id="clip0_363_1022">
      <rect width="16" height="16" fill="white" transform="translate(0 0.5)" />
    </clipPath>
  </defs>
</svg>
  