<svg width="100" height="43" viewBox="0 0 100 43" fill="none" xmlns="http://www.w3.org/2000/svg">
<path d="M0 6.27013L0.0134615 2.93855L3.46153 2.95232L3.44807 6.28391L0 6.27013ZM0.192307 31.0671L0.271154 10.81L3.26923 10.8218L3.19038 31.0789L0.192307 31.0671Z" fill="#008ED0"/>
<path d="M11.7308 30.8841L8.65384 30.8723L8.73268 10.6152L11.5384 10.627L11.525 14.177C12.1961 13.075 13.075 12.1383 14.1577 11.3669C15.2404 10.5955 16.6404 10.2137 18.3634 10.2196C19.5711 10.2236 20.6423 10.4263 21.5807 10.8238C22.5173 11.2213 23.3115 11.7841 23.9634 12.5102C24.6154 13.2364 25.1134 14.1002 25.4557 15.0999C25.798 16.1016 25.9673 17.2055 25.9634 18.4158L25.9154 31.0789H23.0788V19.0947C23.0692 17.2095 22.6 15.7139 21.6577 14.6099C20.7154 13.506 19.3596 12.951 17.5942 12.9431C16.75 12.9392 15.9615 13.0868 15.2308 13.3859C14.5 13.685 13.8654 14.114 13.325 14.6749C12.7846 15.2357 12.3673 15.9087 12.0692 16.6939C11.7731 17.4791 11.6211 18.341 11.7308 19.2856V30.8841Z" fill="#008ED0"/>
<path d="M60.0019 15.7833C60.0019 24.2308 53.5456 31.0789 45.5789 31.0789C37.6121 31.0789 31.1558 24.2308 31.1558 15.7833C31.1558 7.33582 37.6121 0.487671 45.5789 0.487671C53.5456 0.487671 60.0019 7.33582 60.0019 15.7833Z" fill="#008ED0"/>
<path d="M79.6154 10.4144L82.6923 10.4262L82.6135 30.6833L79.6154 30.6715L79.6289 27.1215C78.9558 28.2235 78.0789 29.1602 76.9981 29.9316C75.9154 30.703 74.5135 31.0848 72.7924 31.0789C71.5847 31.0749 70.5116 30.8723 69.577 30.4747C68.6404 30.0772 67.8462 29.5144 67.1943 28.7883C66.5424 28.0621 66.0443 27.2002 65.702 26.1986C65.3597 25.1989 65.1904 24.093 65.1943 22.8827L65.2424 10.2196H68.2712V22.07C68.2039 23.9552 68.6731 25.4508 69.6154 26.5548C70.5577 27.6587 71.9116 28.2137 73.6789 28.2215C74.5231 28.2255 75.3116 28.0779 76.0424 27.7788C76.7731 27.4816 77.402 27.0507 77.9289 26.4898C78.4558 25.929 78.875 25.256 79.1847 24.4728C79.4943 23.6876 79.652 22.8237 79.6193 21.8811V10.4163L79.6154 10.4144Z" fill="#008ED0"/>
<path d="M93.6096 24.8938C93.6039 26.1513 93.9077 27.0309 94.5192 27.5288C95.1308 28.0286 95.9346 28.2805 96.9308 28.2844C97.4423 28.2864 97.9212 28.2372 98.3692 28.1329C98.8173 28.0306 99.2962 27.8495 99.8096 27.5878L99.8 30.2247C99.2827 30.514 98.7346 30.7285 98.1539 30.8702C97.5731 31.0119 96.9212 31.0827 96.2 31.0788C95.4 31.0749 94.6539 30.9666 93.9596 30.7541C93.2654 30.5396 92.6673 30.2011 92.1654 29.7387C91.6654 29.2762 91.2731 28.6741 90.9923 27.9342C90.7116 27.1942 90.5731 26.3107 90.5769 25.2815L90.6231 13.0532L87.8846 13.0414L87.8942 10.2982L90.7692 10.31L90.7923 4.19782L93.6539 4.20963L93.6308 10.2982L100 10.3238L99.9904 13.0532L93.6539 13.0276L93.6077 24.8918L93.6096 24.8938Z" fill="#008ED0"/>
<path d="M50.3846 15.9265C50.3846 18.583 48.2335 20.7389 45.5769 20.7389C42.9203 20.7389 40.7692 18.583 40.7692 15.9265C40.7692 13.2701 42.9203 11.1141 45.5769 11.1141C48.2335 11.1141 50.3846 13.2673 50.3846 15.9265Z" fill="#C80F88"/>
<path d="M47.4999 16.1876C47.4999 15.2575 46.8385 14.48 45.9615 14.3013V5.80783C45.9615 5.58621 45.7897 5.40732 45.5769 5.40732C45.3641 5.40732 45.1923 5.58621 45.1923 5.80783V14.3013C44.3152 14.48 43.6538 15.2575 43.6538 16.1876C43.6538 17.2496 44.516 18.1126 45.5769 18.1126C46.341 18.1126 47.002 17.6649 47.312 17.0177H53.6363C53.8588 17.0177 54.0384 16.8419 54.0384 16.6241C54.0384 16.4063 53.8588 16.2306 53.6363 16.2306H47.4995C47.4998 16.2163 47.4999 16.202 47.4999 16.1876Z" fill="#500FC8"/>
<path d="M56.2061 37.8287H56.158C55.8759 37.8287 55.6067 37.8845 55.3503 37.996C55.0939 38.1009 54.8663 38.2616 54.6676 38.4781C54.4753 38.688 54.3215 38.9504 54.2061 39.2652C54.0907 39.5735 54.033 39.931 54.033 40.3377V42.3941H53.5618V37.3761H54.033V38.8028C54.1292 38.5798 54.2509 38.3731 54.3984 38.1829C54.5458 37.9927 54.7125 37.832 54.8984 37.7008C55.0843 37.563 55.2862 37.4614 55.5041 37.3958C55.7285 37.3236 55.9625 37.2908 56.2061 37.2974V37.8287Z" fill="#500FC8"/>
<path d="M48.1101 40.0819C48.1293 40.3968 48.1966 40.6755 48.312 40.9182C48.4274 41.1609 48.5716 41.3676 48.7447 41.5381C48.9178 41.7087 49.1133 41.8399 49.3312 41.9317C49.5556 42.017 49.7896 42.0596 50.0331 42.0596C50.4178 42.0596 50.7415 41.9842 51.0043 41.8333C51.2735 41.6824 51.5107 41.4955 51.7158 41.2725L52.0428 41.5676C51.7928 41.8431 51.5075 42.0694 51.187 42.2466C50.8729 42.4237 50.4819 42.5122 50.0139 42.5122C49.6934 42.5122 49.3857 42.4499 49.0908 42.3253C48.8024 42.2006 48.546 42.0235 48.3216 41.7939C48.1037 41.5644 47.9306 41.2889 47.8024 40.9674C47.6742 40.646 47.6101 40.2885 47.6101 39.895V39.8753C47.6101 39.5145 47.6678 39.1767 47.7831 38.8618C47.9049 38.5404 48.0684 38.2616 48.2735 38.0255C48.4851 37.7893 48.7319 37.6024 49.0139 37.4646C49.296 37.3269 49.6037 37.258 49.937 37.258C50.2831 37.258 50.594 37.3269 50.8697 37.4646C51.1453 37.5958 51.3793 37.7795 51.5716 38.0157C51.7703 38.2518 51.921 38.5306 52.0235 38.852C52.1325 39.1668 52.187 39.5112 52.187 39.8851V39.9048C52.187 39.9376 52.187 39.9671 52.187 39.9933C52.187 40.013 52.1838 40.0425 52.1774 40.0819H48.1101ZM48.1101 39.649H51.6774C51.6581 39.3932 51.6069 39.1504 51.5235 38.9209C51.4466 38.6847 51.3344 38.4781 51.187 38.301C51.046 38.1173 50.8697 37.973 50.6581 37.8681C50.4466 37.7565 50.1998 37.7008 49.9178 37.7008C49.6742 37.7008 49.4466 37.75 49.2351 37.8484C49.0235 37.9468 48.8376 38.0845 48.6774 38.2616C48.5235 38.4322 48.3953 38.6388 48.2928 38.8815C48.1902 39.1176 48.1293 39.3735 48.1101 39.649Z" fill="#500FC8"/>
<path d="M47.0122 42.3941H46.416L44.4737 39.9442L43.2814 41.1741V42.3941H42.8103V35.2114H43.2814V40.5935L46.3199 37.3761H46.9449L44.8007 39.5998L47.0122 42.3941Z" fill="#500FC8"/>
<path d="M41.4806 41.5184C41.2306 41.8071 40.9453 42.0465 40.6248 42.2367C40.3107 42.4204 39.9293 42.5122 39.4806 42.5122C39.128 42.5122 38.7979 42.4433 38.4902 42.3056C38.1889 42.1613 37.9261 41.971 37.7017 41.7349C37.4774 41.4988 37.3011 41.2233 37.1729 40.9084C37.0447 40.5935 36.9806 40.259 36.9806 39.9048V39.8851C36.9806 39.5309 37.0447 39.1964 37.1729 38.8815C37.3011 38.5667 37.4774 38.2879 37.7017 38.0452C37.9261 37.8025 38.1889 37.6122 38.4902 37.4745C38.7979 37.3302 39.128 37.258 39.4806 37.258C39.7113 37.258 39.9197 37.2843 40.1056 37.3367C40.2979 37.3827 40.4742 37.4482 40.6344 37.5335C40.7947 37.6188 40.9389 37.7172 41.0671 37.8287C41.2017 37.9402 41.3267 38.0583 41.4421 38.1829L41.1056 38.5371C40.894 38.3141 40.6601 38.1206 40.4037 37.9566C40.1472 37.7926 39.8363 37.7106 39.471 37.7106C39.1889 37.7106 38.9261 37.7664 38.6825 37.8779C38.4453 37.9894 38.237 38.1436 38.0575 38.3403C37.8844 38.5306 37.7466 38.7569 37.644 39.0193C37.5415 39.2816 37.4902 39.5637 37.4902 39.8654V39.8851C37.4902 40.1869 37.5415 40.4722 37.644 40.7411C37.753 41.0035 37.8972 41.2331 38.0767 41.4299C38.2626 41.6267 38.4774 41.7808 38.721 41.8923C38.9646 42.0038 39.2274 42.0596 39.5094 42.0596C39.8556 42.0596 40.1633 41.9809 40.4325 41.8235C40.7081 41.6595 40.9485 41.4594 41.1537 41.2233L41.4806 41.5184Z" fill="#500FC8"/>
<path d="M35.6227 42.3941H35.1612V41.5578C35.0778 41.6759 34.9753 41.7939 34.8535 41.912C34.7381 42.0235 34.6035 42.1252 34.4496 42.217C34.2958 42.3023 34.1195 42.3712 33.9208 42.4237C33.7285 42.4827 33.5169 42.5122 33.2862 42.5122C33.0554 42.5122 32.8278 42.4794 32.6035 42.4138C32.3791 42.3482 32.1772 42.2498 31.9977 42.1186C31.8182 41.9874 31.6708 41.8235 31.5554 41.6267C31.4464 41.4299 31.3919 41.2003 31.3919 40.9379V40.9182C31.3919 40.6559 31.4432 40.423 31.5458 40.2197C31.6548 40.0163 31.8022 39.8458 31.9881 39.708C32.174 39.5703 32.3983 39.4653 32.6612 39.3932C32.924 39.321 33.2157 39.2849 33.5362 39.2849C33.8823 39.2849 34.1804 39.3046 34.4304 39.344C34.6804 39.3833 34.924 39.4358 35.1612 39.5014V39.2849C35.1612 38.7733 35.0169 38.3895 34.7285 38.1337C34.4464 37.8779 34.0522 37.75 33.5458 37.75C33.2445 37.75 32.9689 37.7893 32.7189 37.8681C32.4689 37.9402 32.2317 38.0353 32.0073 38.1534L31.8343 37.7303C32.1035 37.5991 32.3759 37.4942 32.6516 37.4155C32.9272 37.3367 33.2349 37.2974 33.5746 37.2974C34.2092 37.2974 34.7092 37.4614 35.0746 37.7893C35.44 38.1173 35.6227 38.6093 35.6227 39.2652V42.3941ZM35.1708 40.5148V39.9442C34.9657 39.8917 34.7253 39.8425 34.4496 39.7966C34.174 39.7441 33.8599 39.7178 33.5073 39.7178C32.9881 39.7178 32.5875 39.8261 32.3054 40.0425C32.0298 40.2524 31.8919 40.5345 31.8919 40.8887V40.9084C31.8919 41.0921 31.9304 41.2561 32.0073 41.4004C32.0842 41.5381 32.1868 41.6562 32.315 41.7546C32.4496 41.853 32.6035 41.9284 32.7766 41.9809C32.9496 42.0334 33.1291 42.0596 33.315 42.0596C33.565 42.0596 33.8022 42.0235 34.0266 41.9514C34.2509 41.8727 34.4464 41.7677 34.6131 41.6365C34.7862 41.4988 34.9208 41.3348 35.0169 41.1445C35.1195 40.9543 35.1708 40.7444 35.1708 40.5148Z" fill="#500FC8"/>
<path d="M30.8342 37.8287H30.7862C30.5041 37.8287 30.2349 37.8845 29.9785 37.996C29.7221 38.1009 29.4945 38.2616 29.2958 38.4781C29.1035 38.688 28.9496 38.9504 28.8343 39.2652C28.7189 39.5735 28.6612 39.931 28.6612 40.3377V42.3941H28.19V37.3761H28.6612V38.8028C28.7573 38.5798 28.8791 38.3731 29.0266 38.1829C29.174 37.9927 29.3407 37.832 29.5266 37.7008C29.7125 37.563 29.9144 37.4614 30.1323 37.3958C30.3567 37.3236 30.5907 37.2908 30.8342 37.2974V37.8287Z" fill="#500FC8"/>
<path d="M26.7728 42.3056C26.6446 42.3646 26.5164 42.4073 26.3882 42.4335C26.2664 42.4663 26.1286 42.4827 25.9747 42.4827C25.7824 42.4827 25.6029 42.4565 25.4363 42.404C25.2696 42.3515 25.1222 42.2695 24.994 42.158C24.8722 42.0399 24.776 41.8956 24.7055 41.7251C24.635 41.548 24.5997 41.3413 24.5997 41.1052V37.8189H23.8882V37.3761H24.5997V35.7723H25.0709V37.3761H26.792V37.8189H25.0709V41.056C25.0709 41.4168 25.1606 41.6693 25.3401 41.8136C25.526 41.9579 25.7632 42.0301 26.0517 42.0301C26.1734 42.0301 26.2888 42.017 26.3978 41.9907C26.5068 41.9645 26.6318 41.9186 26.7728 41.853V42.3056Z" fill="#500FC8"/>
<path d="M16.0056 40.0819C16.0248 40.3968 16.0922 40.6755 16.2075 40.9182C16.3229 41.1609 16.4672 41.3676 16.6402 41.5381C16.8133 41.7087 17.0088 41.8399 17.2268 41.9317C17.4511 42.017 17.6851 42.0596 17.9287 42.0596C18.3133 42.0596 18.637 41.9842 18.8998 41.8333C19.1691 41.6824 19.4063 41.4955 19.6114 41.2725L19.9383 41.5676C19.6883 41.8431 19.403 42.0694 19.0825 42.2466C18.7684 42.4237 18.3774 42.5122 17.9095 42.5122C17.5889 42.5122 17.2813 42.4499 16.9864 42.3253C16.6979 42.2006 16.4415 42.0235 16.2172 41.7939C15.9992 41.5644 15.8261 41.2889 15.6979 40.9674C15.5697 40.646 15.5056 40.2885 15.5056 39.895V39.8753C15.5056 39.5145 15.5633 39.1767 15.6787 38.8618C15.8005 38.5404 15.9639 38.2616 16.1691 38.0255C16.3806 37.7893 16.6274 37.6024 16.9095 37.4646C17.1915 37.3269 17.4992 37.258 17.8325 37.258C18.1787 37.258 18.4896 37.3269 18.7652 37.4646C19.0409 37.5958 19.2748 37.7795 19.4671 38.0157C19.6659 38.2518 19.8165 38.5306 19.9191 38.852C20.028 39.1668 20.0825 39.5112 20.0825 39.8851V39.9048C20.0825 39.9376 20.0825 39.9671 20.0825 39.9933C20.0825 40.013 20.0793 40.0425 20.0729 40.0819H16.0056ZM16.0056 39.649H19.5729C19.5537 39.3932 19.5024 39.1504 19.4191 38.9209C19.3421 38.6847 19.23 38.4781 19.0825 38.301C18.9415 38.1173 18.7652 37.973 18.5537 37.8681C18.3422 37.7565 18.0954 37.7008 17.8133 37.7008C17.5697 37.7008 17.3422 37.75 17.1306 37.8484C16.9191 37.9468 16.7332 38.0845 16.5729 38.2616C16.4191 38.4322 16.2909 38.6388 16.1883 38.8815C16.0857 39.1176 16.0248 39.3735 16.0056 39.649Z" fill="#500FC8"/>
<path d="M14.1097 42.3941H13.6386V39.4128C13.6386 38.8684 13.5104 38.4486 13.254 38.1534C12.9976 37.8517 12.6418 37.7008 12.1867 37.7008C11.9815 37.7008 11.7828 37.7402 11.5905 37.8189C11.4046 37.8976 11.2411 38.0124 11.1001 38.1632C10.9591 38.3141 10.8469 38.5011 10.7636 38.7241C10.6803 38.9405 10.6386 39.1898 10.6386 39.4719V42.3941H10.1674V39.3833C10.1674 38.8585 10.0392 38.4486 9.78282 38.1534C9.52641 37.8517 9.17705 37.7008 8.73474 37.7008C8.51679 37.7008 8.31167 37.7467 8.11936 37.8385C7.92705 37.9304 7.76038 38.0583 7.61936 38.2223C7.47833 38.3863 7.36615 38.5765 7.28282 38.793C7.2059 39.0094 7.16744 39.2456 7.16744 39.5014V42.3941H6.69628V37.3761H7.16744V38.2715C7.24436 38.1403 7.3309 38.0156 7.42705 37.8976C7.52962 37.7729 7.645 37.6647 7.7732 37.5729C7.90141 37.4745 8.04885 37.3991 8.21551 37.3466C8.38859 37.2875 8.5841 37.258 8.80205 37.258C9.01359 37.258 9.2059 37.2875 9.37897 37.3466C9.55846 37.4056 9.71551 37.4843 9.85013 37.5827C9.98474 37.6811 10.1001 37.7959 10.1963 37.9271C10.2988 38.0583 10.3854 38.196 10.4559 38.3403C10.5328 38.2026 10.6258 38.0681 10.7347 37.9369C10.8437 37.8057 10.9687 37.691 11.1097 37.5926C11.2572 37.4876 11.4206 37.4056 11.6001 37.3466C11.786 37.2875 11.9944 37.258 12.2251 37.258C12.5136 37.258 12.7732 37.3105 13.004 37.4155C13.2411 37.5138 13.4399 37.6549 13.6001 37.8385C13.7668 38.0156 13.8918 38.2354 13.9751 38.4978C14.0649 38.7536 14.1097 39.0389 14.1097 39.3538V42.3941Z" fill="#500FC8"/>
<path d="M4.89798 36.0675H4.31144V35.4082H4.89798V36.0675ZM4.84029 42.3941H4.36913V37.3761H4.84029V42.3941Z" fill="#500FC8"/>
<path d="M2.88461 42.3056C2.75641 42.3646 2.6282 42.4073 2.5 42.4335C2.3782 42.4663 2.24038 42.4827 2.08654 42.4827C1.89423 42.4827 1.71474 42.4565 1.54808 42.404C1.38141 42.3515 1.23397 42.2695 1.10577 42.158C0.983973 42.0399 0.88782 41.8956 0.817307 41.7251C0.746794 41.548 0.711538 41.3413 0.711538 41.1052V37.8189H0V37.3761H0.711538V35.7723H1.18269V37.3761H2.90384V37.8189H1.18269V41.056C1.18269 41.4168 1.27243 41.6693 1.45192 41.8136C1.63782 41.9579 1.875 42.0301 2.16346 42.0301C2.28525 42.0301 2.40064 42.017 2.50961 41.9907C2.61859 41.9645 2.74359 41.9186 2.88461 41.853V42.3056Z" fill="#500FC8"/>
</svg>
