<svg width="24" height="25" viewBox="0 0 24 25" fill="none" xmlns="http://www.w3.org/2000/svg">
  <path
    d="M9 20.5H6C5.73478 20.5 5.48043 20.4234 5.29289 20.287C5.10536 20.1506 5 19.9656 5 19.7727V5.22727C5 5.03439 5.10536 4.8494 5.29289 4.71301C5.48043 4.57662 5.73478 4.5 6 4.5H9C9.26522 4.5 9.51957 4.57662 9.70711 4.71301C9.89464 4.8494 10 5.03439 10 5.22727V19.7727C10 19.9656 9.89464 20.1506 9.70711 20.287C9.51957 20.4234 9.26522 20.5 9 20.5Z"
    fill="#F2F3F0" />
  <path
    d="M18 20.5H15C14.7348 20.5 14.4804 20.4234 14.2929 20.287C14.1054 20.1506 14 19.9656 14 19.7727V5.22727C14 5.03439 14.1054 4.8494 14.2929 4.71301C14.4804 4.57662 14.7348 4.5 15 4.5H18C18.2652 4.5 18.5196 4.57662 18.7071 4.71301C18.8946 4.8494 19 5.03439 19 5.22727V19.7727C19 19.9656 18.8946 20.1506 18.7071 20.287C18.5196 20.4234 18.2652 20.5 18 20.5Z"
    fill="#F2F3F0" />
</svg>
  