<svg width="25" height="25" viewBox="0 0 25 25" fill="none" xmlns="http://www.w3.org/2000/svg">
  <g clip-path="url(#clip0_363_1099)">
    <path fill-rule="evenodd" clip-rule="evenodd"
      d="M6.16901 5.26003C6.19582 5.03287 6.2753 4.81512 6.40112 4.6241C6.52695 4.43309 6.69564 4.2741 6.89376 4.15979C7.09188 4.04548 7.31395 3.97902 7.5423 3.96569C7.77064 3.95236 7.99894 3.99254 8.20901 4.08303C9.27101 4.53703 11.651 5.61603 14.671 7.35903C17.692 9.10303 19.817 10.626 20.74 11.317C21.528 11.908 21.53 13.08 20.741 13.673C19.827 14.36 17.728 15.863 14.671 17.629C11.611 19.395 9.25901 20.461 8.20701 20.909C7.30101 21.296 6.28701 20.709 6.16901 19.732C6.03101 18.59 5.77301 15.997 5.77301 12.495C5.77301 8.99503 6.03001 6.40303 6.16901 5.26003Z"
      fill="#F2F3F0" />
  </g>
  <defs>
    <clipPath id="clip0_363_1099">
      <rect width="24" height="24" fill="white" transform="translate(0.5 0.5)" />
    </clipPath>
  </defs>
</svg>
  